<?xml version="1.0" encoding="utf-8"?>
<!-- Generator: Adobe Illustrator 17.1.0, SVG Export Plug-In . SVG Version: 6.00 Build 0)  -->
<!DOCTYPE svg PUBLIC "-//W3C//DTD SVG 1.1//EN" "http://www.w3.org/Graphics/SVG/1.1/DTD/svg11.dtd">
<svg version="1.1" id="Слой_1" xmlns="http://www.w3.org/2000/svg" xmlns:xlink="http://www.w3.org/1999/xlink" x="0px" y="0px"
	 viewBox="0 0 744.6 1024" enable-background="new 0 0 744.6 1024" xml:space="preserve">
<g>
	<path fill="#94C2C0" d="M1024,2107H0v176c0,0,98-72,241-68c140,11,164,14,224-10c0,0,38-19,80-45s130-43.7,130-43.7l349,0.7V2107z"
		/>
	<path fill="#FFFFFF" d="M351,2204.3c0,0,69.3,5.3,115.3-19.3s79.3-51.3,138.7-64.7c-41.6,6.4-84.7,8-130.7,38.7
		C474.3,2159,429,2197,351,2204.3z"/>
</g>
<g>
	<path fill="#FFFFFF" d="M102.8,2171.4c0-0.4,0-0.8,0.1-1.3c0.1,0,0.4-0.1,0.8-0.1l0.8-0.1c0.8-0.1,1.4-0.3,1.8-0.4l0.2-4.7
		l-0.1-3.8v-1.2l0.1-5.2l0-1.6v-0.8c0-1.5-0.1-2.5-0.3-3c-0.1,0-0.2-0.1-0.3-0.1c-0.1,0-0.2,0-0.4-0.1c-0.6-0.1-1.1-0.2-1.5-0.2
		l-0.3-0.1c-0.3,0-0.6-0.1-0.8-0.1c0-0.4-0.1-0.6-0.1-0.7c0-0.1,0-0.4,0.1-0.6c0.3-0.1,0.6-0.1,0.9-0.1c0.7,0,1.5,0,2.3,0.1
		c2.3,0.2,4.7,0.2,7.4,0.2l6-0.1l4.4,0c3.3,0,5.6-0.1,7-0.2c0.5-0.1,0.9-0.1,1.1-0.1c0.2,0,0.6,0,1.2,0.1c0,0.5,0,0.9-0.1,1.3
		c-1.7,0.3-2.8,0.6-3.3,1c-0.1,0.2-0.1,1-0.1,2.1v0.4l0,0.9l0,4.2l0,3.3l0,2.4v2.7l0,2.2c0,0.4,0,0.9,0,1.5c0.3,0.1,0.5,0.1,0.7,0.2
		c1.2,0.2,2.1,0.5,2.7,0.8l0.1,1.3l-0.9,0c-0.2,0-0.4,0-0.7,0l-1.4-0.1c-1-0.1-2.7-0.2-4.9-0.2c-0.7,0-1.4,0-2,0.1l-2,0.2
		c-0.2,0-0.4,0-0.6-0.1c0-0.6,0-1,0.1-1.2l1.3-0.3l0.7-0.1c0.8-0.1,1.3-0.2,1.5-0.3c0.2-0.6,0.2-4.5,0.2-11.6l-0.1-8.1
		c-0.4,0-0.9-0.1-1.5-0.1l-8.6-0.1l-0.2,0c0,0-0.1,0-0.1,0c-0.1,0-0.2,0-0.3,0l-0.8,0c-0.7,0-1.1,0-1.3,0.1
		c-0.1,1.3-0.1,2.4-0.1,3.4l0.1,9.6v5.4c0,0.7,0,1.1,0.1,1.4c0.1,0.1,0.3,0.1,0.7,0.2l0.9,0.1c0.4,0,0.7,0.1,1,0.2l0.7,0.1
		c0.2,0,0.3,0.1,0.4,0.2c0,0.3,0.1,0.5,0.1,0.6c0,0.2,0,0.4-0.1,0.7l-1.2,0c-0.5,0-1.1,0-2-0.1l-1.4,0l-1-0.1l-2,0
		c-0.5,0-1.1,0-1.7,0.1l-1.2,0.1H102.8z"/>
	<path fill="#FFFFFF" d="M135.6,2148.6l0-1.4l4.5,0.3l2,0h0.7c0.8,0,1.9,0,3.6-0.1c0.9-0.1,1.5-0.1,1.7-0.1c1.6,0,2.8,0.1,3.5,0.3
		c1.2,0.2,2.2,0.6,2.9,1.2c0.7,0.5,1.3,1.3,1.8,2.3c0.5,1,0.8,2,0.8,2.8c0,2.2-0.7,3.9-2,5.3c-1.4,1.4-3.1,2-5.2,2
		c-0.7,0-1.4-0.1-2.1-0.3c-0.7-0.2-1.3-0.4-1.8-0.8c-0.1-0.4-0.1-0.9-0.1-1.5c0.3,0,0.6,0,0.8,0.1c0.2,0,0.5,0,0.6,0
		c1.1,0,1.9-0.3,2.7-0.9c1-0.8,1.4-2,1.4-3.7c0-1.2-0.2-2.2-0.6-3c-0.4-0.8-0.9-1.3-1.5-1.6c-0.8-0.4-1.7-0.6-2.7-0.6
		c-0.9,0-1.6,0.1-2,0.4c-0.1,0.2-0.2,0.3-0.2,0.5l0.1,8.8l0,0.7l0.1,0.8c0,0.2,0,0.4,0,0.8v1.5l0,2.4l0,2.9c0,0.4,0,1,0.1,1.7
		l3.7,0.5c0,0.3,0.1,0.5,0.1,0.7c0,0.2,0,0.4-0.1,0.8c-0.3,0-0.5,0.1-0.7,0.1c-0.4,0-1.1,0-2.2-0.1c-1.1-0.1-2.3-0.1-3.7-0.1
		c-1.5,0-3,0.1-4.4,0.3c-0.2,0-0.6,0.1-1.1,0.1c0-0.4-0.1-0.6-0.1-0.8c0-0.1,0-0.3,0-0.5l1.1-0.4c0.8-0.2,1.5-0.5,2-0.9
		c0.1-0.4,0.2-0.7,0.2-1c0-0.1,0-0.3,0-0.4c0-0.4,0-0.9,0-1.6l-0.1-5.2l-0.2-5.9c-0.1-2.8-0.2-4.3-0.2-4.6c-0.1-0.4-0.2-0.6-0.4-0.8
		c-0.2-0.2-0.6-0.4-1.1-0.4C136.6,2148.8,135.9,2148.7,135.6,2148.6z"/>
	<path fill="#FFFFFF" d="M159.9,2159.1c0-1.5,0.3-3.1,0.9-4.7c0.4-1.1,1-2.1,1.8-3.1c0.8-0.9,1.8-1.8,2.9-2.5
		c1.2-0.7,2.4-1.3,3.6-1.6c1.2-0.3,2.6-0.5,4.1-0.5c2.6,0,4.8,0.5,6.7,1.5c1.9,1,3.4,2.3,4.5,3.9c1.4,2.2,2.1,4.4,2.1,6.8
		c0,3.5-1.2,6.5-3.6,9.1c-2.4,2.5-5.7,3.8-10,3.8c-1.1,0-2-0.1-3-0.2c-0.7-0.1-1.3-0.2-1.8-0.4c-0.9-0.3-1.5-0.5-1.6-0.5
		c-1.4-0.8-2.4-1.6-3.3-2.4c-0.8-0.8-1.5-1.7-2.1-2.7c-0.3-0.6-0.7-1.6-1.1-3.1C160,2161.5,159.9,2160.4,159.9,2159.1z
		 M172.6,2148.7c-1.1,0-2,0.3-2.9,0.8s-1.5,1.1-1.9,1.7c-0.7,1-1.2,2.2-1.5,3.4c-0.3,1.2-0.4,2.7-0.4,4.5c0,1.1,0,1.8,0.1,2.3
		c0,0.1,0.1,0.4,0.1,0.8c0.1,0.9,0.2,1.6,0.4,2c0.5,1.6,0.9,2.6,1.1,2.9c0.4,0.6,0.9,1.3,1.7,1.9c0.4,0.3,0.9,0.6,1.6,0.9
		s1.4,0.4,2.1,0.4c1.3,0,2.6-0.3,3.7-0.9c1.2-0.6,2.1-1.7,2.8-3.2c0.7-1.5,1-3.5,1-5.9c0-1-0.1-2.3-0.2-4.1l-0.1-0.4
		c0-0.1-0.1-0.4-0.2-0.8c-0.5-2-1.3-3.6-2.6-4.7C176.2,2149.2,174.6,2148.7,172.6,2148.7z"/>
	<path fill="#FFFFFF" d="M199.2,2171.4c0-0.4,0-0.8,0.1-1.3l2.4-0.4c0.3-0.1,0.6-0.2,1-0.3l0.2-4.7c0-1.7-0.1-2.9-0.1-3.8l0-0.4
		c0-0.5,0.1-1.8,0.1-3.8l0-0.5l0-1.6l0-1.6v-0.8c0-0.7-0.1-1.6-0.2-2.5c0-0.1-0.1-0.2-0.1-0.4c-0.1,0-0.2-0.1-0.3-0.1
		s-0.2,0-0.4-0.1c-0.5-0.1-1-0.1-1.6-0.2l-0.3-0.1c-0.3,0-0.6-0.1-0.8-0.1c0-0.4-0.1-0.6-0.1-0.7c0-0.1,0-0.4,0.1-0.6
		c0.2,0,0.6-0.1,1-0.1c0.4,0,0.8,0,0.9,0c1.5,0.2,2.6,0.3,3.4,0.3c0.3,0,0.7,0,1,0c0.3,0,0.6,0,0.9,0c0.4,0,1.4-0.1,3-0.2
		c0.3-0.1,0.5-0.1,0.9-0.1c0.5,0,0.8,0,1.2,0.1c0,0.3,0,0.4,0,0.6c0,0.2,0,0.4-0.1,0.7l-3.3,0.5c-0.3,0.1-0.4,0.3-0.4,0.5l0,0.7
		l0,0.3l0,0.8l0,0.6v0.1c0,0.1,0,0.3,0,0.4l0,2.4c0,0.2,0,0.4,0,0.5c0,0.1,0,0.3,0,0.6c0,0.2,0,0.4,0,0.6c0,0.2,0,0.6,0,1.3
		c0.3,0.1,0.6,0.1,0.9,0.1l2.8,0.1h1.3l3.4,0l3.3-0.1c0.4,0,0.9,0,1.3-0.1c0-0.4,0-1.5,0.1-3.1l0-0.8l-0.1-3.2l-0.1-1.3
		c0-0.1-0.1-0.2-0.3-0.2c-0.4-0.2-1.3-0.5-2.6-0.8c-0.2,0-0.5-0.1-0.7-0.2c0-0.4,0.1-0.8,0.1-1.1c0.3,0,0.4,0,0.5,0l1.8,0
		c1.2,0.1,2.3,0.2,3.5,0.2c0.3,0,0.5,0,0.7,0l2.4-0.1c0.2,0,0.4,0,0.7,0c0.4-0.1,0.9-0.1,1.4-0.1c0.4,0,0.8,0,1.3,0.1
		c0,0.5,0,0.9-0.1,1.3c-1.1,0.2-1.9,0.4-2.2,0.5c-0.4,0.1-0.7,0.3-1.1,0.4l-0.1,0.4v0.3l0,0.5l0,0.2c0,0.3,0,0.5,0,0.6v0.5
		c0,0.6,0,0.9,0,0.9v2.4l0,1.8l0,2.4c0,0.5,0,1.7,0.1,3.4v2.7l0,2.2c0,0.4,0,0.9,0,1.5c0.3,0.1,0.5,0.1,0.7,0.2
		c1.2,0.2,2,0.5,2.6,0.8l0.1,1.3c-0.5,0-0.8,0-0.9,0c-0.6,0-1.3,0-2.1-0.1c-1-0.1-2.7-0.2-4.9-0.2c-1,0-2.3,0.1-4,0.2
		c-0.2,0-0.4,0-0.6-0.1c0-0.6,0-1,0.1-1.2l1.4-0.3l1.5-0.2c0.1,0,0.3-0.1,0.6-0.2c0.1-1,0.2-2.7,0.2-5l0-1.6
		c-0.1-0.7-0.1-1.5-0.1-2.4c-0.5,0-1-0.1-1.5-0.1l-8.7-0.1l-0.2,0l-0.1,0c-0.1,0-0.2,0-0.3,0c-0.3,0-0.6,0-0.8,0h-0.5
		c-0.2,0-0.5,0-0.8,0.1l-0.1,1.4v0.2c0,0.3,0,0.6,0,0.7v5.8c0,0.3,0,0.7,0.1,1l0.2,0.1l2.8,0.4c0.1,0,0.2,0.1,0.3,0.1
		c0.2,0,0.3,0.1,0.4,0.2c0,0.3,0.1,0.5,0.1,0.6c0,0.2,0,0.4-0.1,0.7c-0.4,0-0.8,0-1.1,0c-0.3,0-0.5,0-0.8,0c-0.1,0-0.2,0-0.3,0
		l-2.6-0.1c-0.6-0.1-1.5-0.1-2.6-0.1l-0.4,0c-0.5,0-0.8,0-0.9,0.1C202.1,2171.4,200.9,2171.4,199.2,2171.4z"/>
	<path fill="#FFFFFF" d="M230.6,2171.5l0-1.3c0.2-0.1,0.7-0.2,1.3-0.3c1-0.2,1.5-0.4,1.7-0.5c0.2-0.2,0.5-0.5,0.8-1.1l3.8-9.9
		l4.4-11.6c0.4,0,0.8,0,1.2,0h0.8l0.2,0.3l3.2,7.7c0.7,1.6,1.4,3.2,2,4.8c0.6,1.5,1.1,2.8,1.5,3.8c0.2,0.6,0.6,1.5,1,2.6
		c0.2,0.6,0.6,1.4,1,2.4c0.2,0.5,0.4,0.8,0.6,0.9c0.2,0.2,0.6,0.3,1.1,0.4c0.5,0.1,1,0.2,1.6,0.4c0.1,0.4,0.1,0.7,0.1,0.9
		c0,0.1,0,0.2,0,0.4c-0.9,0-1.9,0-3-0.1c-1.1-0.1-2.1-0.1-3-0.1c-1,0-1.7,0-2.1,0l-3.2,0.2l-0.9,0c0-0.4,0-0.9,0.1-1.3l2.1-0.4
		c0.6-0.2,1-0.3,1.1-0.4c0.1-0.1,0.2-0.3,0.2-0.4c0-0.2,0-0.3-0.1-0.5l-0.7-1.8l-1.5-3.7l-7.1,0c-0.3,0.6-0.8,2.1-1.6,4.4
		c-0.2,0.7-0.4,1.1-0.4,1.3c0,0.3,0.1,0.6,0.3,0.7c0.3,0.2,0.8,0.4,1.6,0.5c0.1,0,0.6,0.1,1.3,0.2c0,0.4,0,0.8,0,0.9
		c0,0.1,0,0.3,0,0.4c-0.8,0-2.6-0.1-5.5-0.3l-0.8,0.1c-0.9,0.1-1.8,0.2-2.6,0.2H230.6z M239.4,2161c2.9,0,4.6,0.1,5.1,0.1l0.5,0
		c-0.4-1.1-0.9-2.4-1.5-3.9s-1.1-2.6-1.5-3.4L239.4,2161z"/>
	<path fill="#FFFFFF" d="M279.2,2147.7c0.2,0.4,0.5,1.4,1,3.2c0.2,0.8,0.3,1.6,0.4,2.5h-1.7c-1.2-1.7-2.4-2.9-3.7-3.7
		c-1.3-0.7-2.7-1.1-4.3-1.1c-1.9,0-3.5,0.8-4.7,2.3c-1.6,2-2.4,4.9-2.4,8.5c0,2.1,0.1,3.6,0.4,4.5c0.4,1.5,1,2.6,1.7,3.6
		c0.5,0.7,1.2,1.3,2.1,1.7c1.1,0.6,2.3,0.8,3.5,0.8c1.4,0,2.7-0.4,4-1.3c1.3-0.8,2.5-2.1,3.7-3.8c0.5-0.1,1.1-0.1,1.8-0.1
		c0,0.5-0.1,1-0.2,1.5c0,0.2-0.2,1-0.4,2.4l-0.2,0.6l-0.3,0.9c-0.8,0.6-1.8,1-3.2,1.3c-1.4,0.3-3.1,0.4-5.1,0.4
		c-1.5,0-3-0.1-4.3-0.4s-2.5-0.7-3.5-1.4c-1.4-0.9-2.5-1.9-3.3-2.9s-1.4-2.2-1.8-3.4c-0.4-1.2-0.6-2.6-0.6-4.1
		c0-3.7,1.2-6.8,3.7-9.2c2.4-2.4,5.6-3.6,9.4-3.6c1.5,0,3,0.1,4.4,0.2S278,2147.4,279.2,2147.7z"/>
</g>
<text transform="matrix(0.9979 0 0 1 604.3281 3106.4419)" fill="#FFFFFF" font-family="'Garamond-Bold'" font-size="38.9372">НАШІ ПЕРЕВАГИ</text>
<path fill="#CB9CAC" d="M572.6,167.2c0,0-27.9,51.9-167.7,51.2c0,0-66.7-1.8-138.4-7c-71.7-5.1-124.9,9.9-146.7,38.7
	c0,0-25,37.8,16.7,88.4c0,0,45.2,51.6,138.3,98.6c0,0,219.7,107.6,306.8,216.2c0,0,130.3,117,163,370.7c0,0-33.6-331.4-437.1-516.8
	c0,0-266.7-105.5-306.5-232.3v-89.4C1,185.4,11.6,82.6,134.5,0c0,0-77.8,74.9-81.7,161.4c0,0,32.7-73,190.2-60.5
	c0,0-141.2,1.9-175.8,107.6c0,0-27.9,83.6,37.5,148.9c0,0-52.8-70.1-12.5-156.6c0,0,22.1-53.8,117.2-60.5c0,0,74-1.9,157.6,17.3
	C367,157.6,520.7,196,572.6,167.2z"/>
</svg>
